<?xml version="1.0" standalone="no"?>
<!DOCTYPE svg PUBLIC "-//W3C//DTD SVG 20010904//EN"
 "http://www.w3.org/TR/2001/REC-SVG-20010904/DTD/svg10.dtd">
<svg version="1.0" xmlns="http://www.w3.org/2000/svg"
 width="512.000000pt" height="512.000000pt" viewBox="0 0 512.000000 512.000000"
 preserveAspectRatio="xMidYMid meet">
<metadata>
Created by potrace 1.11, written by Peter Selinger 2001-2013
</metadata>
<g transform="translate(0.000000,512.000000) scale(0.100000,-0.100000)"
fill="#000000" stroke="none">
<path d="M1385 5049 c-227 -20 -427 -90 -635 -223 -70 -44 -77 -50 -184 -142
-84 -72 -123 -115 -194 -207 -51 -66 -152 -230 -152 -245 0 -5 -11 -30 -24
-58 -34 -72 -68 -177 -95 -294 -33 -146 -36 -174 -36 -400 1 -248 6 -294 65
-530 31 -127 116 -325 195 -456 80 -132 112 -172 245 -319 123 -135 114 -119
111 -182 -4 -129 53 -273 145 -359 67 -64 127 -94 229 -114 l80 -16 6 -69 c8
-91 21 -129 67 -201 77 -119 180 -185 311 -200 59 -6 61 -8 61 -35 0 -34 26
-149 42 -187 38 -87 128 -186 204 -221 49 -23 151 -51 188 -51 25 0 26 -2 26
-57 0 -134 87 -284 205 -357 77 -48 120 -60 225 -59 84 0 102 3 155 29 64 30
164 124 365 343 140 151 153 172 190 296 14 48 21 59 36 57 83 -13 113 -13
162 -2 103 23 185 75 252 160 55 70 84 146 98 255 l7 60 60 6 c62 7 72 9 143
41 122 54 242 246 242 390 0 47 1 48 31 48 92 0 207 51 283 126 64 62 109 153
129 255 13 68 20 84 70 146 115 145 218 329 268 478 7 22 17 44 21 49 4 6 8
20 8 33 0 13 4 31 9 41 5 9 14 42 20 72 6 30 16 80 23 110 18 75 17 471 0 565
-42 225 -104 397 -210 580 -86 149 -228 318 -355 423 -73 60 -230 150 -337
192 -30 12 -64 26 -75 30 -75 32 -360 80 -470 80 -79 0 -242 -21 -350 -46
-149 -35 -226 -61 -365 -127 -55 -27 -228 -134 -254 -158 -19 -17 -22 -15
-105 60 -83 76 -201 165 -265 200 -59 33 -131 69 -171 85 -22 10 -48 21 -57
26 -10 6 -25 10 -33 10 -8 0 -23 4 -33 9 -18 10 -105 33 -187 50 -71 14 -284
20 -390 10z m299 -234 c11 -8 41 -15 67 -15 26 0 51 -4 54 -10 3 -5 24 -10 46
-10 21 0 39 -4 39 -10 0 -5 12 -10 26 -10 14 0 32 -7 40 -15 9 -8 24 -15 35
-15 10 0 19 -4 19 -10 0 -5 11 -10 25 -10 14 0 25 -4 25 -10 0 -5 6 -10 14
-10 7 0 19 -7 26 -15 7 -8 21 -15 31 -15 11 0 19 -4 19 -10 0 -5 9 -10 19 -10
10 0 21 -7 25 -15 3 -8 10 -15 16 -15 5 0 19 -8 31 -17 11 -10 30 -26 42 -35
12 -10 49 -43 83 -74 l60 -57 -55 -57 c-101 -105 -181 -190 -181 -193 0 -2
-29 -33 -65 -71 -36 -37 -65 -72 -65 -77 0 -5 -5 -9 -11 -9 -12 0 -39 -25 -39
-35 0 -4 -13 -20 -30 -35 -16 -15 -30 -33 -30 -39 0 -6 -6 -11 -13 -11 -7 0
-21 -12 -32 -27 -11 -14 -47 -55 -80 -89 -33 -35 -88 -93 -122 -129 -35 -36
-63 -67 -63 -69 0 -3 -26 -31 -57 -64 -130 -135 -163 -172 -163 -187 0 -8 4
-15 8 -15 5 0 14 -11 21 -24 7 -13 24 -30 37 -37 13 -7 24 -16 24 -21 0 -12
26 -38 37 -38 5 0 27 -16 49 -35 21 -19 44 -35 50 -35 7 0 14 -7 18 -15 3 -8
15 -15 26 -15 11 0 20 -4 20 -10 0 -5 14 -10 30 -10 17 0 30 -4 30 -10 0 -5
15 -10 34 -10 20 0 36 -6 39 -14 5 -12 81 -23 182 -27 55 -2 189 18 193 29 2
7 19 12 38 12 19 0 34 5 34 10 0 6 11 10 25 10 14 0 25 5 25 10 0 6 8 10 19
10 10 0 24 7 31 15 7 8 19 15 26 15 8 0 14 5 14 10 0 6 8 10 18 10 10 0 24 11
31 24 7 13 25 30 40 37 14 7 41 29 59 49 18 19 61 65 95 101 34 36 105 112
157 169 52 57 122 132 155 166 l60 63 65 -71 c82 -89 178 -192 255 -272 33
-35 98 -105 145 -156 47 -51 101 -110 120 -130 19 -21 78 -84 130 -140 52 -57
118 -127 145 -156 28 -29 82 -87 120 -129 39 -41 97 -104 130 -138 33 -35 92
-98 130 -141 39 -43 77 -85 85 -94 8 -8 20 -26 27 -40 15 -29 18 -162 3 -162
-5 0 -10 -7 -10 -15 0 -16 -74 -95 -90 -95 -6 0 -13 -7 -16 -15 -5 -11 -23
-15 -75 -15 -38 0 -69 4 -69 9 0 5 -9 12 -19 16 -23 7 -62 45 -191 185 -181
196 -324 350 -395 424 -33 34 -98 105 -145 156 -91 100 -187 202 -246 263 -34
34 -41 37 -93 37 -58 0 -91 -20 -91 -54 0 -8 -7 -16 -15 -20 -9 -3 -15 -18
-15 -35 0 -16 7 -36 15 -45 8 -8 15 -22 15 -30 0 -16 48 -71 163 -188 31 -33
57 -61 57 -64 0 -2 27 -32 59 -66 94 -99 181 -192 246 -263 33 -36 90 -97 128
-136 37 -39 67 -74 67 -78 0 -4 11 -14 25 -21 14 -7 25 -17 25 -22 0 -4 27
-36 59 -70 33 -35 82 -87 110 -117 31 -32 51 -63 51 -77 0 -12 5 -26 10 -29 6
-3 10 -24 10 -46 0 -21 -4 -39 -10 -39 -5 0 -10 -10 -10 -23 0 -13 -16 -40
-35 -60 -19 -20 -35 -40 -35 -43 0 -13 -30 -34 -49 -34 -11 0 -23 -4 -26 -10
-3 -5 -26 -10 -50 -10 -24 0 -47 5 -50 10 -3 6 -13 10 -21 10 -13 0 -184 164
-184 176 0 3 -26 31 -57 64 -32 33 -89 93 -128 135 -38 42 -92 100 -120 129
-27 29 -93 99 -145 156 -140 152 -218 236 -282 302 -32 33 -58 62 -58 64 0 11
-29 34 -43 34 -8 0 -17 7 -21 15 -7 21 -65 19 -96 -2 -50 -34 -53 -42 -51
-111 2 -74 9 -86 102 -183 30 -31 97 -103 149 -159 52 -57 121 -130 153 -162
31 -33 57 -61 57 -64 0 -2 28 -33 63 -69 115 -122 182 -192 267 -285 47 -51
100 -108 118 -126 17 -18 32 -36 32 -40 0 -4 8 -14 19 -23 10 -9 21 -26 25
-38 4 -13 12 -23 17 -23 16 0 11 -136 -6 -150 -8 -7 -15 -18 -15 -24 -1 -15
-60 -78 -90 -95 -14 -8 -52 -14 -91 -13 -66 0 -77 5 -124 49 -8 7 -18 13 -23
13 -5 0 -20 14 -33 32 -50 66 -71 88 -85 88 -8 0 -14 5 -14 11 0 16 -31 38
-52 39 -10 0 -18 5 -18 10 0 6 -13 10 -29 10 -16 0 -34 7 -41 15 -8 10 -30 15
-64 15 l-51 0 -13 47 c-7 27 -16 66 -19 88 -3 22 -9 44 -14 50 -5 5 -9 17 -9
27 0 10 -4 18 -10 18 -5 0 -10 11 -10 25 0 14 -4 25 -8 25 -5 0 -17 15 -27 34
-10 19 -27 40 -38 48 -11 7 -30 23 -43 36 -13 12 -30 22 -39 22 -9 0 -18 7
-21 15 -4 8 -15 15 -25 15 -10 0 -19 5 -19 10 0 6 -20 10 -44 10 -25 0 -48 5
-51 10 -3 6 -21 10 -39 10 l-34 0 -4 67 c-2 39 -9 68 -16 71 -7 2 -12 19 -12
38 0 19 -4 34 -10 34 -5 0 -10 11 -10 24 0 13 -3 26 -8 28 -4 2 -25 27 -46 56
-21 28 -42 52 -47 52 -5 0 -22 13 -37 30 -16 17 -37 30 -46 30 -9 0 -16 5 -16
10 0 6 -12 10 -26 10 -14 0 -32 7 -40 15 -10 10 -35 15 -75 15 l-59 0 0 34 c0
19 -4 38 -10 41 -5 3 -10 28 -10 56 0 27 -4 49 -10 49 -5 0 -10 11 -10 25 0
14 -4 25 -10 25 -5 0 -10 11 -10 25 0 14 -4 25 -8 25 -4 0 -16 15 -27 33 -23
38 -40 57 -54 57 -5 0 -18 11 -29 25 -11 14 -27 25 -35 25 -9 0 -19 5 -22 10
-3 6 -15 10 -26 10 -10 0 -19 7 -19 15 0 11 -11 15 -39 15 -22 0 -43 5 -46 10
-3 6 -37 10 -75 10 -38 0 -72 -4 -75 -10 -3 -5 -19 -10 -35 -10 -16 0 -35 -7
-44 -15 -8 -8 -23 -15 -33 -15 -10 0 -25 -9 -33 -20 -8 -11 -19 -20 -25 -20
-10 0 -95 -74 -95 -83 0 -2 -25 -29 -55 -60 -30 -30 -55 -59 -55 -64 0 -5 -11
-16 -25 -23 -14 -7 -25 -16 -25 -20 0 -4 -29 -37 -64 -75 l-65 -67 -78 79
c-43 44 -85 93 -93 109 -8 16 -23 36 -32 45 -10 9 -18 21 -18 28 0 6 -4 11
-10 11 -5 0 -10 7 -10 16 0 9 -11 27 -25 40 -14 13 -25 32 -25 44 0 11 -4 20
-10 20 -5 0 -10 9 -10 20 0 11 -3 20 -8 20 -4 0 -12 12 -19 28 -38 92 -48 112
-55 112 -4 0 -8 11 -8 25 0 14 -4 25 -10 25 -5 0 -10 16 -10 35 0 19 -4 35
-10 35 -5 0 -10 15 -10 34 0 19 -5 38 -10 41 -5 3 -10 26 -10 50 0 24 -4 46
-9 49 -4 3 -11 35 -14 72 -2 36 -10 71 -16 77 -15 15 -15 339 0 354 6 6 16 42
21 80 16 124 20 143 29 149 5 3 9 18 9 34 0 16 5 32 10 35 6 3 10 19 10 36 0
16 5 29 10 29 6 0 10 11 10 24 0 13 7 26 15 30 8 3 15 15 15 26 0 11 5 20 10
20 6 0 10 9 10 20 0 12 9 30 20 42 11 12 20 30 20 40 0 10 4 18 8 18 5 0 15
12 23 28 15 29 41 59 132 153 31 32 57 62 57 65 0 8 53 54 62 54 4 0 18 11 32
25 14 14 29 25 34 25 5 0 21 11 36 25 15 14 34 25 42 25 7 0 14 5 14 10 0 6 9
10 20 10 11 0 20 4 20 10 0 5 11 12 25 16 14 3 25 10 25 15 0 5 9 9 20 9 11 0
20 5 20 10 0 6 11 10 24 10 13 0 29 7 36 15 7 8 25 15 41 15 16 0 29 5 29 10
0 6 15 10 34 10 19 0 38 5 41 10 3 6 30 10 59 10 35 0 58 5 66 15 18 22 286
21 314 0z m2141 -135 c3 -5 23 -10 44 -10 20 0 46 -7 57 -15 10 -8 31 -15 46
-15 15 0 30 -4 33 -10 3 -5 17 -10 31 -10 13 0 24 -4 24 -10 0 -5 8 -10 18
-10 10 0 27 -7 38 -15 10 -8 27 -15 37 -15 9 0 17 -4 17 -10 0 -5 6 -10 14
-10 48 0 304 -219 358 -305 14 -22 35 -49 47 -59 11 -11 21 -23 21 -27 0 -5
19 -39 43 -76 41 -66 58 -100 80 -153 5 -14 13 -33 18 -42 5 -10 9 -26 9 -35
0 -10 7 -27 15 -37 8 -11 15 -30 15 -42 0 -13 5 -26 10 -29 6 -3 10 -24 10
-45 0 -21 5 -42 10 -45 6 -3 10 -30 10 -59 0 -28 5 -57 10 -62 7 -7 9 -74 6
-195 -5 -204 -13 -299 -27 -313 -5 -6 -9 -22 -9 -38 0 -15 -4 -37 -9 -50 -5
-13 -17 -43 -26 -68 -29 -76 -32 -83 -67 -167 -7 -18 -16 -33 -20 -33 -5 0 -8
-9 -8 -19 0 -11 -4 -23 -10 -26 -5 -3 -17 -21 -26 -40 -9 -19 -20 -35 -25 -35
-5 0 -9 -6 -9 -12 0 -7 -11 -26 -25 -43 l-25 -30 -28 35 c-28 35 -498 545
-757 820 -96 103 -296 319 -316 341 -39 45 -230 250 -291 311 -39 40 -75 68
-87 68 -11 0 -22 4 -25 9 -3 4 -22 3 -42 -3 -37 -11 -61 -35 -403 -406 -176
-191 -268 -281 -303 -299 -16 -8 -28 -18 -28 -23 0 -4 -8 -8 -17 -8 -10 0 -27
-7 -37 -15 -11 -8 -30 -15 -42 -15 -13 0 -26 -4 -29 -10 -8 -12 -238 -13 -263
-1 -9 5 -47 23 -84 41 -70 33 -77 42 -56 64 7 7 60 64 118 126 58 62 125 134
149 159 39 41 206 221 271 291 306 333 437 463 481 479 6 1 22 14 36 27 14 13
32 24 39 24 8 0 14 5 14 10 0 6 9 10 20 10 11 0 20 4 20 10 0 5 11 12 25 16
14 3 25 10 25 15 0 5 9 9 20 9 11 0 20 5 20 10 0 6 6 10 14 10 8 0 29 8 48 17
62 31 68 33 93 33 14 0 25 5 25 10 0 6 18 10 40 10 27 0 43 5 46 15 4 10 21
15 54 15 27 0 52 5 55 10 4 6 92 10 230 10 138 0 226 -4 230 -10z m-2350
-2160 c24 0 90 -57 124 -107 17 -25 21 -46 21 -106 0 -88 -11 -112 -82 -188
-29 -31 -100 -107 -158 -169 -58 -63 -124 -133 -148 -157 l-43 -43 -77 0 c-70
1 -81 3 -116 30 -49 37 -81 84 -91 135 -20 104 4 166 105 275 23 25 88 94 144
154 55 60 103 112 106 115 3 4 21 19 40 33 37 28 77 38 124 32 16 -2 38 -4 51
-4z m455 -485 c7 -8 18 -15 25 -15 17 0 105 -95 105 -114 0 -8 5 -18 10 -21 6
-3 10 -33 10 -65 0 -32 -4 -62 -10 -65 -5 -3 -10 -14 -10 -24 0 -19 -34 -58
-289 -329 -58 -62 -119 -119 -135 -127 -43 -22 -118 -19 -163 6 -48 26 -83 59
-83 76 0 7 -4 13 -10 13 -5 0 -10 6 -10 14 0 7 -7 27 -15 42 -25 49 -20 80 27
181 12 25 321 360 352 382 12 8 23 18 26 22 3 3 15 9 28 13 12 4 22 12 22 17
0 16 106 11 120 -6z m517 -532 c67 -67 73 -81 73 -174 0 -80 -10 -108 -55
-155 -5 -6 -57 -62 -115 -125 -58 -63 -140 -149 -183 -191 -83 -83 -85 -84
-187 -78 -45 2 -114 45 -144 90 -26 40 -39 123 -28 186 7 40 29 77 82 134 183
199 243 263 289 307 l53 53 84 0 84 0 47 -47z m382 -435 c41 -15 131 -104 131
-130 0 -9 5 -20 10 -23 12 -8 13 -109 1 -133 -5 -9 -15 -30 -22 -47 -8 -16
-75 -95 -149 -175 -188 -202 -220 -234 -259 -253 -37 -18 -141 -24 -141 -7 0
6 -7 10 -16 10 -29 0 -83 51 -109 103 -26 53 -36 159 -15 172 6 3 10 14 10 23
0 18 20 40 206 238 63 67 133 142 156 168 23 25 50 46 59 46 10 0 21 5 24 10
9 14 71 13 114 -2z"/>
<path d="M1286 4575 c-15 -8 -37 -15 -47 -15 -11 0 -19 -4 -19 -10 0 -5 -9
-10 -20 -10 -11 0 -20 -4 -20 -10 0 -5 -6 -10 -13 -10 -22 0 -117 -104 -117
-128 0 -7 -7 -20 -15 -28 -8 -9 -15 -24 -15 -34 0 -10 -4 -22 -10 -25 -6 -4
-10 -53 -10 -116 0 -66 4 -109 10 -109 6 0 10 -11 10 -24 0 -13 7 -29 15 -36
8 -7 15 -19 15 -26 0 -8 3 -14 8 -14 4 0 13 -12 19 -27 16 -36 77 -100 102
-108 11 -3 22 -12 25 -20 3 -8 12 -15 21 -15 8 0 15 -4 15 -10 0 -5 10 -10 23
-10 13 0 28 -5 34 -11 5 -5 44 -12 86 -14 58 -3 80 -1 91 10 8 8 26 15 40 15
14 0 26 5 26 10 0 6 8 10 17 10 23 0 143 127 143 151 0 10 5 19 10 19 6 0 10
13 10 29 0 16 7 35 16 42 14 11 16 29 12 108 -3 58 -10 97 -17 99 -6 2 -11 12
-11 22 0 33 -56 125 -112 183 -31 31 -60 57 -64 57 -5 0 -20 9 -34 20 -14 11
-39 20 -56 20 -17 0 -37 7 -44 15 -16 19 -86 19 -124 0z m129 -115 c3 -5 14
-10 23 -10 24 0 182 -165 182 -190 0 -11 5 -20 10 -20 6 0 10 -10 10 -21 0
-12 5 -39 12 -61 9 -29 9 -41 0 -50 -7 -7 -12 -26 -12 -44 0 -24 -12 -45 -55
-90 -30 -33 -54 -62 -55 -66 0 -5 -9 -8 -20 -8 -11 0 -20 -4 -20 -10 0 -6 -35
-10 -85 -10 -50 0 -85 4 -85 10 0 6 -7 10 -15 10 -18 0 -27 7 -101 76 -30 27
-54 58 -54 67 0 9 -4 17 -10 17 -5 0 -10 6 -10 14 0 8 -5 16 -11 18 -7 2 -11
40 -12 103 -1 85 2 106 21 137 54 95 120 136 214 137 37 1 70 -3 73 -9z"/>
<path d="M744 4056 c-3 -7 -25 -24 -50 -36 -24 -13 -44 -27 -44 -31 0 -4 -25
-33 -55 -64 -30 -31 -55 -65 -55 -75 0 -11 -4 -20 -10 -20 -5 0 -10 -11 -10
-25 0 -14 -4 -25 -10 -25 -6 0 -10 -52 -10 -135 0 -83 4 -135 10 -135 6 0 10
-11 10 -25 0 -14 5 -25 10 -25 6 0 10 -9 10 -20 0 -23 143 -170 165 -170 8 0
15 -4 15 -10 0 -5 8 -10 18 -10 9 0 26 -7 36 -15 28 -21 169 -21 186 0 7 8 23
15 36 15 13 0 24 5 24 10 0 6 7 10 16 10 14 0 114 92 114 105 0 3 11 17 25 31
14 14 25 31 25 39 0 8 3 15 8 15 14 0 36 65 35 103 0 29 -8 47 -31 70 -18 18
-44 46 -59 63 -99 110 -123 134 -137 134 -20 0 -164 -145 -167 -167 -5 -56 -1
-63 41 -63 22 0 40 4 40 9 0 12 61 71 73 71 6 0 36 -28 68 -62 41 -45 59 -71
59 -90 0 -16 -4 -28 -10 -28 -5 0 -10 -7 -10 -15 0 -8 -4 -15 -10 -15 -5 0
-10 -6 -10 -14 0 -15 -58 -76 -72 -76 -5 0 -18 -9 -30 -20 -49 -45 -229 -20
-261 36 -4 8 -12 14 -18 14 -15 0 -56 44 -63 68 -4 12 -12 22 -17 22 -5 0 -9
7 -9 15 0 8 -4 15 -10 15 -5 0 -10 14 -10 30 0 17 -4 30 -10 30 -6 0 -10 30
-10 69 0 39 5 73 10 76 6 3 10 16 10 28 0 12 11 31 25 41 14 10 25 26 25 34 0
14 14 29 77 79 36 29 70 50 96 59 41 15 1 94 -49 94 -13 0 -27 -6 -30 -14z"/>
<path d="M3514 4546 c-26 -29 -102 -111 -295 -320 -54 -57 -56 -61 -42 -83 9
-13 20 -23 26 -23 6 0 52 43 102 96 l90 96 100 -107 c55 -59 100 -112 100
-116 0 -5 -36 -47 -80 -95 -44 -48 -83 -92 -87 -98 -3 -6 3 -22 14 -36 l20
-25 45 50 c55 60 220 238 291 315 55 58 64 93 26 98 -15 2 -42 -19 -94 -73
-41 -41 -79 -75 -86 -75 -22 0 -194 186 -194 210 0 8 19 35 43 60 95 101 108
120 97 140 -16 29 -44 24 -76 -14z"/>
<path d="M3899 4072 c-248 -264 -319 -343 -319 -355 0 -5 22 -32 49 -60 27
-29 74 -79 104 -112 53 -57 57 -59 73 -43 23 22 14 41 -51 110 -82 88 -88 95
-78 111 18 32 115 137 127 137 7 0 43 -32 80 -71 37 -38 73 -68 79 -66 7 2 13
14 15 28 2 18 -14 41 -57 89 -33 36 -60 72 -60 80 0 16 103 130 117 130 5 0
43 -37 85 -82 l77 -82 21 21 22 21 -44 48 c-102 110 -156 164 -166 164 -6 0
-39 -31 -74 -68z"/>
<path d="M4071 3623 c-105 -113 -191 -213 -191 -222 1 -9 45 -62 98 -119 73
-77 102 -101 115 -96 9 3 17 15 17 26 0 17 -24 46 -137 164 -19 19 -17 24 45
90 45 48 172 186 257 278 35 38 37 44 18 65 -9 12 -20 21 -24 21 -4 0 -93 -93
-198 -207z"/>
<path d="M4490 3493 c-23 -27 -91 -100 -150 -163 -213 -228 -209 -223 -170
-248 19 -11 27 -5 95 65 l74 78 43 -41 c66 -64 132 -89 204 -78 90 13 161 127
132 213 -6 20 -22 50 -34 66 -26 36 -138 155 -146 155 -3 0 -25 -21 -48 -47z
m114 -105 c42 -47 46 -57 46 -102 0 -43 -5 -55 -32 -83 -26 -27 -40 -33 -74
-33 -36 0 -49 7 -93 46 -32 29 -51 54 -49 64 4 21 128 159 144 159 7 1 33 -22
58 -51z"/>
</g>
</svg>
